<?xml version="1.0" standalone="no"?>
<svg xmlns="http://www.w3.org/2000/svg" width="340" height="340"><defs><clipPath id="clip-path-dot-color"><circle cx="15.5" cy="136.5" r="5.5" transform="rotate(0,15.5,136.5)"/><path d="M 10 153v 11h 11a 11 11, 0, 0, 0, -11 -11" transform="rotate(-90,15.5,158.5)"/><path d="M 10 164v 11h 5.5a 5.5 5.5, 0, 0, 0, 0 -11" transform="rotate(90,15.5,169.5)"/><path d="M 10 186v 11h 5.5a 5.5 5.5, 0, 0, 0, 0 -11" transform="rotate(-90,15.5,191.5)"/><path d="M 10 197v 11h 11a 11 11, 0, 0, 0, -11 -11" transform="rotate(180,15.5,202.5)"/><path d="M 10 219v 11h 11a 11 11, 0, 0, 0, -11 -11" transform="rotate(-90,15.5,224.5)"/><path d="M 10 230v 11h 5.5a 5.5 5.5, 0, 0, 0, 0 -11" transform="rotate(90,15.5,235.5)"/><path d="M 21 120v 11h 5.5a 5.5 5.5, 0, 0, 0, 0 -11" transform="rotate(180,26.5,125.5)"/><rect x="21" y="153" width="11" height="11" transform="rotate(0,26.5,158.5)"/><path d="M 21 197v 11h 5.5a 5.5 5.5, 0, 0, 0, 0 -11" transform="rotate(0,26.5,202.5)"/><rect x="21" y="219" width="11" height="11" transform="rotate(0,26.5,224.5)"/><path d="M 32 98v 11h 11a 11 11, 0, 0, 0, -11 -11" transform="rotate(-90,37.5,103.5)"/><rect x="32" y="109" width="11" height="11" transform="rotate(0,37.5,114.5)"/><rect x="32" y="120" width="11" height="11" transform="rotate(0,37.5,125.5)"/><rect x="32" y="131" width="11" height="11" transform="rotate(0,37.5,136.5)"/><rect x="32" y="142" width="11" height="11" transform="rotate(0,37.5,147.5)"/><path d="M 32 153v 11h 11a 11 11, 0, 0, 0, -11 -11" transform="rotate(90,37.5,158.5)"/><circle cx="37.5" cy="191.5" r="5.5" transform="rotate(0,37.5,191.5)"/><path d="M 32 219v 11h 5.5a 5.5 5.5, 0, 0, 0, 0 -11" transform="rotate(0,37.5,224.5)"/><path d="M 43 98v 11h 11a 11 11, 0, 0, 0, -11 -11" transform="rotate(0,48.5,103.5)"/><path d="M 43 109v 11h 11a 11 11, 0, 0, 0, -11 -11" transform="rotate(90,48.5,114.5)"/><path d="M 43 175v 11h 5.5a 5.5 5.5, 0, 0, 0, 0 -11" transform="rotate(180,48.5,180.5)"/><circle cx="48.5" cy="202.5" r="5.5" transform="rotate(0,48.5,202.5)"/><circle cx="48.5" cy="235.5" r="5.5" transform="rotate(0,48.5,235.5)"/><path d="M 54 131v 11h 11a 11 11, 0, 0, 0, -11 -11" transform="rotate(-90,59.5,136.5)"/><rect x="54" y="142" width="11" height="11" transform="rotate(0,59.5,147.5)"/><rect x="54" y="153" width="11" height="11" transform="rotate(0,59.5,158.5)"/><rect x="54" y="164" width="11" height="11" transform="rotate(0,59.5,169.5)"/><rect x="54" y="175" width="11" height="11" transform="rotate(0,59.5,180.5)"/><path d="M 54 186v 11h 11a 11 11, 0, 0, 0, -11 -11" transform="rotate(180,59.5,191.5)"/><circle cx="59.5" cy="213.5" r="5.5" transform="rotate(0,59.5,213.5)"/><path d="M 65 109v 11h 5.5a 5.5 5.5, 0, 0, 0, 0 -11" transform="rotate(-90,70.5,114.5)"/><rect x="65" y="120" width="11" height="11" transform="rotate(0,70.5,125.5)"/><path d="M 65 131v 11h 11a 11 11, 0, 0, 0, -11 -11" transform="rotate(90,70.5,136.5)"/><rect x="65" y="164" width="11" height="11" transform="rotate(0,70.5,169.5)"/><rect x="65" y="175" width="11" height="11" transform="rotate(0,70.5,180.5)"/><rect x="65" y="186" width="11" height="11" transform="rotate(0,70.5,191.5)"/><circle cx="81.5" cy="103.5" r="5.5" transform="rotate(0,81.5,103.5)"/><rect x="76" y="120" width="11" height="11" transform="rotate(0,81.5,125.5)"/><circle cx="81.5" cy="147.5" r="5.5" transform="rotate(0,81.5,147.5)"/><rect x="76" y="164" width="11" height="11" transform="rotate(0,81.5,169.5)"/><path d="M 76 186v 11h 5.5a 5.5 5.5, 0, 0, 0, 0 -11" transform="rotate(0,81.5,191.5)"/><path d="M 76 208v 11h 5.5a 5.5 5.5, 0, 0, 0, 0 -11" transform="rotate(180,81.5,213.5)"/><path d="M 76 230v 11h 5.5a 5.5 5.5, 0, 0, 0, 0 -11" transform="rotate(180,81.5,235.5)"/><path d="M 87 109v 11h 5.5a 5.5 5.5, 0, 0, 0, 0 -11" transform="rotate(-90,92.5,114.5)"/><rect x="87" y="120" width="11" height="11" transform="rotate(0,92.5,125.5)"/><path d="M 87 131v 11h 5.5a 5.5 5.5, 0, 0, 0, 0 -11" transform="rotate(90,92.5,136.5)"/><path d="M 87 153v 11h 5.5a 5.5 5.5, 0, 0, 0, 0 -11" transform="rotate(-90,92.5,158.5)"/><rect x="87" y="164" width="11" height="11" transform="rotate(0,92.5,169.5)"/><path d="M 87 175v 11h 5.5a 5.5 5.5, 0, 0, 0, 0 -11" transform="rotate(90,92.5,180.5)"/><path d="M 87 197v 11h 5.5a 5.5 5.5, 0, 0, 0, 0 -11" transform="rotate(-90,92.5,202.5)"/><rect x="87" y="208" width="11" height="11" transform="rotate(0,92.5,213.5)"/><rect x="87" y="219" width="11" height="11" transform="rotate(0,92.5,224.5)"/><path d="M 87 230v 11h 11a 11 11, 0, 0, 0, -11 -11" transform="rotate(90,92.5,235.5)"/><path d="M 98 43v 11h 11a 11 11, 0, 0, 0, -11 -11" transform="rotate(-90,103.5,48.5)"/><path d="M 98 54v 11h 11a 11 11, 0, 0, 0, -11 -11" transform="rotate(180,103.5,59.5)"/><path d="M 98 76v 11h 5.5a 5.5 5.5, 0, 0, 0, 0 -11" transform="rotate(-90,103.5,81.5)"/><path d="M 98 87v 11h 5.5a 5.5 5.5, 0, 0, 0, 0 -11" transform="rotate(90,103.5,92.5)"/><rect x="98" y="120" width="11" height="11" transform="rotate(0,103.5,125.5)"/><circle cx="103.5" cy="147.5" r="5.5" transform="rotate(0,103.5,147.5)"/><path d="M 98 219v 11h 5.5a 5.5 5.5, 0, 0, 0, 0 -11" transform="rotate(0,103.5,224.5)"/><path d="M 98 285v 11h 11a 11 11, 0, 0, 0, -11 -11" transform="rotate(-90,103.5,290.5)"/><path d="M 98 296v 11h 11a 11 11, 0, 0, 0, -11 -11" transform="rotate(180,103.5,301.5)"/><circle cx="114.5" cy="26.5" r="5.5" transform="rotate(0,114.5,26.5)"/><path d="M 109 43v 11h 11a 11 11, 0, 0, 0, -11 -11" transform="rotate(0,114.5,48.5)"/><rect x="109" y="54" width="11" height="11" transform="rotate(0,114.5,59.5)"/><path d="M 109 98v 11h 5.5a 5.5 5.5, 0, 0, 0, 0 -11" transform="rotate(-90,114.5,103.5)"/><rect x="109" y="109" width="11" height="11" transform="rotate(0,114.5,114.5)"/><rect x="109" y="120" width="11" height="11" transform="rotate(0,114.5,125.5)"/><path d="M 109 131v 11h 11a 11 11, 0, 0, 0, -11 -11" transform="rotate(180,114.5,136.5)"/><path d="M 109 153v 11h 5.5a 5.5 5.5, 0, 0, 0, 0 -11" transform="rotate(-90,114.5,158.5)"/><path d="M 109 164v 11h 11a 11 11, 0, 0, 0, -11 -11" transform="rotate(180,114.5,169.5)"/><path d="M 109 186v 11h 5.5a 5.5 5.5, 0, 0, 0, 0 -11" transform="rotate(180,114.5,191.5)"/><path d="M 109 208v 11h 5.5a 5.5 5.5, 0, 0, 0, 0 -11" transform="rotate(180,114.5,213.5)"/><circle cx="114.5" cy="246.5" r="5.5" transform="rotate(0,114.5,246.5)"/><path d="M 109 263v 11h 5.5a 5.5 5.5, 0, 0, 0, 0 -11" transform="rotate(-90,114.5,268.5)"/><rect x="109" y="274" width="11" height="11" transform="rotate(0,114.5,279.5)"/><rect x="109" y="285" width="11" height="11" transform="rotate(0,114.5,290.5)"/><rect x="109" y="296" width="11" height="11" transform="rotate(0,114.5,301.5)"/><circle cx="125.5" cy="37.5" r="5.5" transform="rotate(0,125.5,37.5)"/><path d="M 120 54v 11h 11a 11 11, 0, 0, 0, -11 -11" transform="rotate(0,125.5,59.5)"/><rect x="120" y="65" width="11" height="11" transform="rotate(0,125.5,70.5)"/><path d="M 120 76v 11h 5.5a 5.5 5.5, 0, 0, 0, 0 -11" transform="rotate(90,125.5,81.5)"/><path d="M 120 109v 11h 11a 11 11, 0, 0, 0, -11 -11" transform="rotate(0,125.5,114.5)"/><rect x="120" y="120" width="11" height="11" transform="rotate(0,125.5,125.5)"/><rect x="120" y="131" width="11" height="11" transform="rotate(0,125.5,136.5)"/><path d="M 120 164v 11h 11a 11 11, 0, 0, 0, -11 -11" transform="rotate(0,125.5,169.5)"/><rect x="120" y="175" width="11" height="11" transform="rotate(0,125.5,180.5)"/><rect x="120" y="186" width="11" height="11" transform="rotate(0,125.5,191.5)"/><rect x="120" y="197" width="11" height="11" transform="rotate(0,125.5,202.5)"/><rect x="120" y="208" width="11" height="11" transform="rotate(0,125.5,213.5)"/><rect x="120" y="219" width="11" height="11" transform="rotate(0,125.5,224.5)"/><path d="M 120 230v 11h 11a 11 11, 0, 0, 0, -11 -11" transform="rotate(180,125.5,235.5)"/><path d="M 120 252v 11h 5.5a 5.5 5.5, 0, 0, 0, 0 -11" transform="rotate(180,125.5,257.5)"/><rect x="120" y="285" width="11" height="11" transform="rotate(0,125.5,290.5)"/><path d="M 120 296v 11h 11a 11 11, 0, 0, 0, -11 -11" transform="rotate(90,125.5,301.5)"/><path d="M 131 10v 11h 11a 11 11, 0, 0, 0, -11 -11" transform="rotate(-90,136.5,15.5)"/><path d="M 131 21v 11h 11a 11 11, 0, 0, 0, -11 -11" transform="rotate(180,136.5,26.5)"/><path d="M 131 43v 11h 5.5a 5.5 5.5, 0, 0, 0, 0 -11" transform="rotate(180,136.5,48.5)"/><path d="M 131 87v 11h 5.5a 5.5 5.5, 0, 0, 0, 0 -11" transform="rotate(180,136.5,92.5)"/><path d="M 131 131v 11h 5.5a 5.5 5.5, 0, 0, 0, 0 -11" transform="rotate(0,136.5,136.5)"/><path d="M 131 186v 11h 5.5a 5.5 5.5, 0, 0, 0, 0 -11" transform="rotate(0,136.5,191.5)"/><rect x="131" y="208" width="11" height="11" transform="rotate(0,136.5,213.5)"/><rect x="131" y="219" width="11" height="11" transform="rotate(0,136.5,224.5)"/><rect x="131" y="230" width="11" height="11" transform="rotate(0,136.5,235.5)"/><rect x="131" y="241" width="11" height="11" transform="rotate(0,136.5,246.5)"/><rect x="131" y="252" width="11" height="11" transform="rotate(0,136.5,257.5)"/><path d="M 131 285v 11h 5.5a 5.5 5.5, 0, 0, 0, 0 -11" transform="rotate(0,136.5,290.5)"/><path d="M 131 307v 11h 5.5a 5.5 5.5, 0, 0, 0, 0 -11" transform="rotate(180,136.5,312.5)"/><rect x="142" y="10" width="11" height="11" transform="rotate(0,147.5,15.5)"/><rect x="142" y="21" width="11" height="11" transform="rotate(0,147.5,26.5)"/><path d="M 142 43v 11h 5.5a 5.5 5.5, 0, 0, 0, 0 -11" transform="rotate(0,147.5,48.5)"/><path d="M 142 65v 11h 5.5a 5.5 5.5, 0, 0, 0, 0 -11" transform="rotate(-90,147.5,70.5)"/><rect x="142" y="76" width="11" height="11" transform="rotate(0,147.5,81.5)"/><rect x="142" y="87" width="11" height="11" transform="rotate(0,147.5,92.5)"/><rect x="142" y="98" width="11" height="11" transform="rotate(0,147.5,103.5)"/><path d="M 142 109v 11h 5.5a 5.5 5.5, 0, 0, 0, 0 -11" transform="rotate(90,147.5,114.5)"/><path d="M 142 142v 11h 11a 11 11, 0, 0, 0, -11 -11" transform="rotate(-90,147.5,147.5)"/><rect x="142" y="153" width="11" height="11" transform="rotate(0,147.5,158.5)"/><path d="M 142 164v 11h 5.5a 5.5 5.5, 0, 0, 0, 0 -11" transform="rotate(90,147.5,169.5)"/><path d="M 142 197v 11h 5.5a 5.5 5.5, 0, 0, 0, 0 -11" transform="rotate(-90,147.5,202.5)"/><path d="M 142 208v 11h 11a 11 11, 0, 0, 0, -11 -11" transform="rotate(90,147.5,213.5)"/><rect x="142" y="230" width="11" height="11" transform="rotate(0,147.5,235.5)"/><rect x="142" y="241" width="11" height="11" transform="rotate(0,147.5,246.5)"/><rect x="142" y="252" width="11" height="11" transform="rotate(0,147.5,257.5)"/><path d="M 142 263v 11h 11a 11 11, 0, 0, 0, -11 -11" transform="rotate(180,147.5,268.5)"/><path d="M 142 307v 11h 11a 11 11, 0, 0, 0, -11 -11" transform="rotate(0,147.5,312.5)"/><path d="M 142 318v 11h 11a 11 11, 0, 0, 0, -11 -11" transform="rotate(180,147.5,323.5)"/><path d="M 153 10v 11h 11a 11 11, 0, 0, 0, -11 -11" transform="rotate(0,158.5,15.5)"/><path d="M 153 21v 11h 11a 11 11, 0, 0, 0, -11 -11" transform="rotate(90,158.5,26.5)"/><path d="M 153 54v 11h 5.5a 5.5 5.5, 0, 0, 0, 0 -11" transform="rotate(180,158.5,59.5)"/><path d="M 153 87v 11h 11a 11 11, 0, 0, 0, -11 -11" transform="rotate(0,158.5,92.5)"/><rect x="153" y="98" width="11" height="11" transform="rotate(0,158.5,103.5)"/><path d="M 153 120v 11h 5.5a 5.5 5.5, 0, 0, 0, 0 -11" transform="rotate(-90,158.5,125.5)"/><rect x="153" y="131" width="11" height="11" transform="rotate(0,158.5,136.5)"/><rect x="153" y="142" width="11" height="11" transform="rotate(0,158.5,147.5)"/><path d="M 153 153v 11h 11a 11 11, 0, 0, 0, -11 -11" transform="rotate(90,158.5,158.5)"/><path d="M 153 230v 11h 5.5a 5.5 5.5, 0, 0, 0, 0 -11" transform="rotate(0,158.5,235.5)"/><rect x="153" y="252" width="11" height="11" transform="rotate(0,158.5,257.5)"/><rect x="153" y="263" width="11" height="11" transform="rotate(0,158.5,268.5)"/><rect x="153" y="274" width="11" height="11" transform="rotate(0,158.5,279.5)"/><path d="M 153 285v 11h 11a 11 11, 0, 0, 0, -11 -11" transform="rotate(180,158.5,290.5)"/><rect x="153" y="318" width="11" height="11" transform="rotate(0,158.5,323.5)"/><path d="M 164 32v 11h 5.5a 5.5 5.5, 0, 0, 0, 0 -11" transform="rotate(-90,169.5,37.5)"/><rect x="164" y="43" width="11" height="11" transform="rotate(0,169.5,48.5)"/><path d="M 164 54v 11h 11a 11 11, 0, 0, 0, -11 -11" transform="rotate(90,169.5,59.5)"/><circle cx="169.5" cy="81.5" r="5.5" transform="rotate(0,169.5,81.5)"/><path d="M 164 98v 11h 5.5a 5.5 5.5, 0, 0, 0, 0 -11" transform="rotate(0,169.5,103.5)"/><path d="M 164 164v 11h 5.5a 5.5 5.5, 0, 0, 0, 0 -11" transform="rotate(180,169.5,169.5)"/><path d="M 164 197v 11h 5.5a 5.5 5.5, 0, 0, 0, 0 -11" transform="rotate(180,169.5,202.5)"/><path d="M 164 219v 11h 5.5a 5.5 5.5, 0, 0, 0, 0 -11" transform="rotate(180,169.5,224.5)"/><path d="M 164 241v 11h 5.5a 5.5 5.5, 0, 0, 0, 0 -11" transform="rotate(-90,169.5,246.5)"/><rect x="164" y="252" width="11" height="11" transform="rotate(0,169.5,257.5)"/><rect x="164" y="263" width="11" height="11" transform="rotate(0,169.5,268.5)"/><rect x="164" y="274" width="11" height="11" transform="rotate(0,169.5,279.5)"/><rect x="164" y="285" width="11" height="11" transform="rotate(0,169.5,290.5)"/><path d="M 164 318v 11h 5.5a 5.5 5.5, 0, 0, 0, 0 -11" transform="rotate(0,169.5,323.5)"/><path d="M 175 10v 11h 5.5a 5.5 5.5, 0, 0, 0, 0 -11" transform="rotate(180,180.5,15.5)"/><path d="M 175 87v 11h 5.5a 5.5 5.5, 0, 0, 0, 0 -11" transform="rotate(180,180.5,92.5)"/><path d="M 175 120v 11h 11a 11 11, 0, 0, 0, -11 -11" transform="rotate(-90,180.5,125.5)"/><path d="M 175 131v 11h 5.5a 5.5 5.5, 0, 0, 0, 0 -11" transform="rotate(90,180.5,136.5)"/><rect x="175" y="164" width="11" height="11" transform="rotate(0,180.5,169.5)"/><path d="M 175 175v 11h 5.5a 5.5 5.5, 0, 0, 0, 0 -11" transform="rotate(90,180.5,180.5)"/><path d="M 175 197v 11h 11a 11 11, 0, 0, 0, -11 -11" transform="rotate(0,180.5,202.5)"/><rect x="175" y="208" width="11" height="11" transform="rotate(0,180.5,213.5)"/><rect x="175" y="219" width="11" height="11" transform="rotate(0,180.5,224.5)"/><path d="M 175 230v 11h 5.5a 5.5 5.5, 0, 0, 0, 0 -11" transform="rotate(90,180.5,235.5)"/><path d="M 175 274v 11h 11a 11 11, 0, 0, 0, -11 -11" transform="rotate(0,180.5,279.5)"/><rect x="175" y="285" width="11" height="11" transform="rotate(0,180.5,290.5)"/><path d="M 175 296v 11h 5.5a 5.5 5.5, 0, 0, 0, 0 -11" transform="rotate(90,180.5,301.5)"/><rect x="186" y="10" width="11" height="11" transform="rotate(0,191.5,15.5)"/><circle cx="191.5" cy="48.5" r="5.5" transform="rotate(0,191.5,48.5)"/><path d="M 186 65v 11h 5.5a 5.5 5.5, 0, 0, 0, 0 -11" transform="rotate(-90,191.5,70.5)"/><rect x="186" y="76" width="11" height="11" transform="rotate(0,191.5,81.5)"/><path d="M 186 87v 11h 11a 11 11, 0, 0, 0, -11 -11" transform="rotate(90,191.5,92.5)"/><path d="M 186 120v 11h 5.5a 5.5 5.5, 0, 0, 0, 0 -11" transform="rotate(0,191.5,125.5)"/><path d="M 186 153v 11h 5.5a 5.5 5.5, 0, 0, 0, 0 -11" transform="rotate(-90,191.5,158.5)"/><path d="M 186 164v 11h 11a 11 11, 0, 0, 0, -11 -11" transform="rotate(90,191.5,169.5)"/><path d="M 186 186v 11h 5.5a 5.5 5.5, 0, 0, 0, 0 -11" transform="rotate(180,191.5,191.5)"/><circle cx="191.5" cy="246.5" r="5.5" transform="rotate(0,191.5,246.5)"/><circle cx="191.5" cy="268.5" r="5.5" transform="rotate(0,191.5,268.5)"/><path d="M 186 318v 11h 5.5a 5.5 5.5, 0, 0, 0, 0 -11" transform="rotate(180,191.5,323.5)"/><rect x="197" y="10" width="11" height="11" transform="rotate(0,202.5,15.5)"/><rect x="197" y="21" width="11" height="11" transform="rotate(0,202.5,26.5)"/><path d="M 197 32v 11h 5.5a 5.5 5.5, 0, 0, 0, 0 -11" transform="rotate(90,202.5,37.5)"/><path d="M 197 54v 11h 5.5a 5.5 5.5, 0, 0, 0, 0 -11" transform="rotate(180,202.5,59.5)"/><circle cx="202.5" cy="103.5" r="5.5" transform="rotate(0,202.5,103.5)"/><path d="M 197 131v 11h 11a 11 11, 0, 0, 0, -11 -11" transform="rotate(-90,202.5,136.5)"/><path d="M 197 142v 11h 5.5a 5.5 5.5, 0, 0, 0, 0 -11" transform="rotate(90,202.5,147.5)"/><rect x="197" y="186" width="11" height="11" transform="rotate(0,202.5,191.5)"/><path d="M 197 197v 11h 11a 11 11, 0, 0, 0, -11 -11" transform="rotate(180,202.5,202.5)"/><path d="M 197 252v 11h 5.5a 5.5 5.5, 0, 0, 0, 0 -11" transform="rotate(180,202.5,257.5)"/><path d="M 197 274v 11h 5.5a 5.5 5.5, 0, 0, 0, 0 -11" transform="rotate(180,202.5,279.5)"/><path d="M 197 307v 11h 5.5a 5.5 5.5, 0, 0, 0, 0 -11" transform="rotate(-90,202.5,312.5)"/><rect x="197" y="318" width="11" height="11" transform="rotate(0,202.5,323.5)"/><rect x="208" y="10" width="11" height="11" transform="rotate(0,213.5,15.5)"/><rect x="208" y="21" width="11" height="11" transform="rotate(0,213.5,26.5)"/><path d="M 208 54v 11h 5.5a 5.5 5.5, 0, 0, 0, 0 -11" transform="rotate(0,213.5,59.5)"/><circle cx="213.5" cy="81.5" r="5.5" transform="rotate(0,213.5,81.5)"/><path d="M 208 109v 11h 11a 11 11, 0, 0, 0, -11 -11" transform="rotate(-90,213.5,114.5)"/><rect x="208" y="120" width="11" height="11" transform="rotate(0,213.5,125.5)"/><path d="M 208 131v 11h 11a 11 11, 0, 0, 0, -11 -11" transform="rotate(90,213.5,136.5)"/><circle cx="213.5" cy="169.5" r="5.5" transform="rotate(0,213.5,169.5)"/><path d="M 208 186v 11h 11a 11 11, 0, 0, 0, -11 -11" transform="rotate(0,213.5,191.5)"/><rect x="208" y="197" width="11" height="11" transform="rotate(0,213.5,202.5)"/><path d="M 208 219v 11h 5.5a 5.5 5.5, 0, 0, 0, 0 -11" transform="rotate(180,213.5,224.5)"/><path d="M 208 241v 11h 5.5a 5.5 5.5, 0, 0, 0, 0 -11" transform="rotate(-90,213.5,246.5)"/><rect x="208" y="252" width="11" height="11" transform="rotate(0,213.5,257.5)"/><rect x="208" y="263" width="11" height="11" transform="rotate(0,213.5,268.5)"/><rect x="208" y="274" width="11" height="11" transform="rotate(0,213.5,279.5)"/><path d="M 208 285v 11h 5.5a 5.5 5.5, 0, 0, 0, 0 -11" transform="rotate(90,213.5,290.5)"/><rect x="208" y="318" width="11" height="11" transform="rotate(0,213.5,323.5)"/><rect x="219" y="10" width="11" height="11" transform="rotate(0,224.5,15.5)"/><rect x="219" y="21" width="11" height="11" transform="rotate(0,224.5,26.5)"/><circle cx="224.5" cy="48.5" r="5.5" transform="rotate(0,224.5,48.5)"/><path d="M 219 65v 11h 5.5a 5.5 5.5, 0, 0, 0, 0 -11" transform="rotate(180,224.5,70.5)"/><path d="M 219 87v 11h 5.5a 5.5 5.5, 0, 0, 0, 0 -11" transform="rotate(180,224.5,92.5)"/><rect x="219" y="109" width="11" height="11" transform="rotate(0,224.5,114.5)"/><rect x="219" y="120" width="11" height="11" transform="rotate(0,224.5,125.5)"/><circle cx="224.5" cy="180.5" r="5.5" transform="rotate(0,224.5,180.5)"/><rect x="219" y="197" width="11" height="11" transform="rotate(0,224.5,202.5)"/><rect x="219" y="219" width="11" height="11" transform="rotate(0,224.5,224.5)"/><path d="M 219 230v 11h 11a 11 11, 0, 0, 0, -11 -11" transform="rotate(180,224.5,235.5)"/><rect x="219" y="263" width="11" height="11" transform="rotate(0,224.5,268.5)"/><rect x="219" y="274" width="11" height="11" transform="rotate(0,224.5,279.5)"/><path d="M 219 296v 11h 11a 11 11, 0, 0, 0, -11 -11" transform="rotate(-90,224.5,301.5)"/><rect x="219" y="307" width="11" height="11" transform="rotate(0,224.5,312.5)"/><rect x="219" y="318" width="11" height="11" transform="rotate(0,224.5,323.5)"/><path d="M 230 10v 11h 11a 11 11, 0, 0, 0, -11 -11" transform="rotate(0,235.5,15.5)"/><rect x="230" y="21" width="11" height="11" transform="rotate(0,235.5,26.5)"/><path d="M 230 32v 11h 5.5a 5.5 5.5, 0, 0, 0, 0 -11" transform="rotate(90,235.5,37.5)"/><path d="M 230 54v 11h 5.5a 5.5 5.5, 0, 0, 0, 0 -11" transform="rotate(-90,235.5,59.5)"/><rect x="230" y="65" width="11" height="11" transform="rotate(0,235.5,70.5)"/><rect x="230" y="76" width="11" height="11" transform="rotate(0,235.5,81.5)"/><rect x="230" y="87" width="11" height="11" transform="rotate(0,235.5,92.5)"/><rect x="230" y="98" width="11" height="11" transform="rotate(0,235.5,103.5)"/><rect x="230" y="109" width="11" height="11" transform="rotate(0,235.5,114.5)"/><rect x="230" y="120" width="11" height="11" transform="rotate(0,235.5,125.5)"/><circle cx="235.5" cy="147.5" r="5.5" transform="rotate(0,235.5,147.5)"/><path d="M 230 164v 11h 5.5a 5.5 5.5, 0, 0, 0, 0 -11" transform="rotate(180,235.5,169.5)"/><path d="M 230 186v 11h 11a 11 11, 0, 0, 0, -11 -11" transform="rotate(-90,235.5,191.5)"/><rect x="230" y="197" width="11" height="11" transform="rotate(0,235.5,202.5)"/><rect x="230" y="219" width="11" height="11" transform="rotate(0,235.5,224.5)"/><rect x="230" y="230" width="11" height="11" transform="rotate(0,235.5,235.5)"/><rect x="230" y="241" width="11" height="11" transform="rotate(0,235.5,246.5)"/><rect x="230" y="252" width="11" height="11" transform="rotate(0,235.5,257.5)"/><rect x="230" y="263" width="11" height="11" transform="rotate(0,235.5,268.5)"/><rect x="230" y="274" width="11" height="11" transform="rotate(0,235.5,279.5)"/><rect x="230" y="285" width="11" height="11" transform="rotate(0,235.5,290.5)"/><rect x="230" y="296" width="11" height="11" transform="rotate(0,235.5,301.5)"/><rect x="230" y="307" width="11" height="11" transform="rotate(0,235.5,312.5)"/><path d="M 230 318v 11h 11a 11 11, 0, 0, 0, -11 -11" transform="rotate(90,235.5,323.5)"/><rect x="241" y="98" width="11" height="11" transform="rotate(0,246.5,103.5)"/><rect x="241" y="109" width="11" height="11" transform="rotate(0,246.5,114.5)"/><rect x="241" y="120" width="11" height="11" transform="rotate(0,246.5,125.5)"/><path d="M 241 131v 11h 5.5a 5.5 5.5, 0, 0, 0, 0 -11" transform="rotate(90,246.5,136.5)"/><path d="M 241 164v 11h 11a 11 11, 0, 0, 0, -11 -11" transform="rotate(0,246.5,169.5)"/><rect x="241" y="175" width="11" height="11" transform="rotate(0,246.5,180.5)"/><rect x="241" y="186" width="11" height="11" transform="rotate(0,246.5,191.5)"/><path d="M 241 197v 11h 11a 11 11, 0, 0, 0, -11 -11" transform="rotate(90,246.5,202.5)"/><path d="M 241 219v 11h 11a 11 11, 0, 0, 0, -11 -11" transform="rotate(0,246.5,224.5)"/><rect x="241" y="230" width="11" height="11" transform="rotate(0,246.5,235.5)"/><rect x="241" y="274" width="11" height="11" transform="rotate(0,246.5,279.5)"/><path d="M 252 98v 11h 5.5a 5.5 5.5, 0, 0, 0, 0 -11" transform="rotate(0,257.5,103.5)"/><circle cx="257.5" cy="147.5" r="5.5" transform="rotate(0,257.5,147.5)"/><path d="M 252 208v 11h 5.5a 5.5 5.5, 0, 0, 0, 0 -11" transform="rotate(180,257.5,213.5)"/><rect x="252" y="230" width="11" height="11" transform="rotate(0,257.5,235.5)"/><circle cx="257.5" cy="257.5" r="5.5" transform="rotate(0,257.5,257.5)"/><rect x="252" y="274" width="11" height="11" transform="rotate(0,257.5,279.5)"/><rect x="252" y="285" width="11" height="11" transform="rotate(0,257.5,290.5)"/><path d="M 252 296v 11h 5.5a 5.5 5.5, 0, 0, 0, 0 -11" transform="rotate(90,257.5,301.5)"/><path d="M 263 109v 11h 11a 11 11, 0, 0, 0, -11 -11" transform="rotate(-90,268.5,114.5)"/><path d="M 263 120v 11h 5.5a 5.5 5.5, 0, 0, 0, 0 -11" transform="rotate(90,268.5,125.5)"/><path d="M 263 186v 11h 5.5a 5.5 5.5, 0, 0, 0, 0 -11" transform="rotate(-90,268.5,191.5)"/><rect x="263" y="197" width="11" height="11" transform="rotate(0,268.5,202.5)"/><rect x="263" y="208" width="11" height="11" transform="rotate(0,268.5,213.5)"/><rect x="263" y="219" width="11" height="11" transform="rotate(0,268.5,224.5)"/><rect x="263" y="230" width="11" height="11" transform="rotate(0,268.5,235.5)"/><rect x="263" y="274" width="11" height="11" transform="rotate(0,268.5,279.5)"/><path d="M 263 285v 11h 11a 11 11, 0, 0, 0, -11 -11" transform="rotate(90,268.5,290.5)"/><path d="M 263 307v 11h 5.5a 5.5 5.5, 0, 0, 0, 0 -11" transform="rotate(-90,268.5,312.5)"/><path d="M 263 318v 11h 11a 11 11, 0, 0, 0, -11 -11" transform="rotate(180,268.5,323.5)"/><path d="M 274 98v 11h 11a 11 11, 0, 0, 0, -11 -11" transform="rotate(-90,279.5,103.5)"/><rect x="274" y="109" width="11" height="11" transform="rotate(0,279.5,114.5)"/><circle cx="279.5" cy="136.5" r="5.5" transform="rotate(0,279.5,136.5)"/><path d="M 274 153v 11h 5.5a 5.5 5.5, 0, 0, 0, 0 -11" transform="rotate(180,279.5,158.5)"/><path d="M 274 175v 11h 5.5a 5.5 5.5, 0, 0, 0, 0 -11" transform="rotate(180,279.5,180.5)"/><path d="M 274 208v 11h 11a 11 11, 0, 0, 0, -11 -11" transform="rotate(0,279.5,213.5)"/><rect x="274" y="219" width="11" height="11" transform="rotate(0,279.5,224.5)"/><rect x="274" y="230" width="11" height="11" transform="rotate(0,279.5,235.5)"/><rect x="274" y="241" width="11" height="11" transform="rotate(0,279.5,246.5)"/><rect x="274" y="252" width="11" height="11" transform="rotate(0,279.5,257.5)"/><rect x="274" y="263" width="11" height="11" transform="rotate(0,279.5,268.5)"/><path d="M 274 274v 11h 11a 11 11, 0, 0, 0, -11 -11" transform="rotate(90,279.5,279.5)"/><path d="M 274 318v 11h 5.5a 5.5 5.5, 0, 0, 0, 0 -11" transform="rotate(0,279.5,323.5)"/><path d="M 285 98v 11h 11a 11 11, 0, 0, 0, -11 -11" transform="rotate(0,290.5,103.5)"/><path d="M 285 109v 11h 11a 11 11, 0, 0, 0, -11 -11" transform="rotate(90,290.5,114.5)"/><path d="M 285 153v 11h 11a 11 11, 0, 0, 0, -11 -11" transform="rotate(0,290.5,158.5)"/><rect x="285" y="164" width="11" height="11" transform="rotate(0,290.5,169.5)"/><rect x="285" y="175" width="11" height="11" transform="rotate(0,290.5,180.5)"/><rect x="285" y="186" width="11" height="11" transform="rotate(0,290.5,191.5)"/><path d="M 285 197v 11h 11a 11 11, 0, 0, 0, -11 -11" transform="rotate(180,290.5,202.5)"/><path d="M 285 230v 11h 11a 11 11, 0, 0, 0, -11 -11" transform="rotate(0,290.5,235.5)"/><path d="M 285 241v 11h 11a 11 11, 0, 0, 0, -11 -11" transform="rotate(90,290.5,246.5)"/><path d="M 285 285v 11h 5.5a 5.5 5.5, 0, 0, 0, 0 -11" transform="rotate(-90,290.5,290.5)"/><rect x="285" y="296" width="11" height="11" transform="rotate(0,290.5,301.5)"/><path d="M 285 307v 11h 11a 11 11, 0, 0, 0, -11 -11" transform="rotate(180,290.5,312.5)"/><path d="M 296 175v 11h 11a 11 11, 0, 0, 0, -11 -11" transform="rotate(0,301.5,180.5)"/><rect x="296" y="186" width="11" height="11" transform="rotate(0,301.5,191.5)"/><path d="M 296 197v 11h 11a 11 11, 0, 0, 0, -11 -11" transform="rotate(90,301.5,202.5)"/><circle cx="301.5" cy="224.5" r="5.5" transform="rotate(0,301.5,224.5)"/><path d="M 296 252v 11h 5.5a 5.5 5.5, 0, 0, 0, 0 -11" transform="rotate(-90,301.5,257.5)"/><rect x="296" y="263" width="11" height="11" transform="rotate(0,301.5,268.5)"/><path d="M 296 274v 11h 5.5a 5.5 5.5, 0, 0, 0, 0 -11" transform="rotate(90,301.5,279.5)"/><path d="M 296 307v 11h 11a 11 11, 0, 0, 0, -11 -11" transform="rotate(0,301.5,312.5)"/><path d="M 296 318v 11h 11a 11 11, 0, 0, 0, -11 -11" transform="rotate(180,301.5,323.5)"/><path d="M 307 109v 11h 5.5a 5.5 5.5, 0, 0, 0, 0 -11" transform="rotate(180,312.5,114.5)"/><path d="M 307 131v 11h 5.5a 5.5 5.5, 0, 0, 0, 0 -11" transform="rotate(-90,312.5,136.5)"/><path d="M 307 142v 11h 5.5a 5.5 5.5, 0, 0, 0, 0 -11" transform="rotate(90,312.5,147.5)"/><path d="M 307 164v 11h 5.5a 5.5 5.5, 0, 0, 0, 0 -11" transform="rotate(180,312.5,169.5)"/><path d="M 307 230v 11h 5.5a 5.5 5.5, 0, 0, 0, 0 -11" transform="rotate(-90,312.5,235.5)"/><path d="M 307 241v 11h 11a 11 11, 0, 0, 0, -11 -11" transform="rotate(180,312.5,246.5)"/><path d="M 307 285v 11h 11a 11 11, 0, 0, 0, -11 -11" transform="rotate(-90,312.5,290.5)"/><path d="M 307 296v 11h 5.5a 5.5 5.5, 0, 0, 0, 0 -11" transform="rotate(90,312.5,301.5)"/><path d="M 307 318v 11h 5.5a 5.5 5.5, 0, 0, 0, 0 -11" transform="rotate(0,312.5,323.5)"/><path d="M 318 109v 11h 5.5a 5.5 5.5, 0, 0, 0, 0 -11" transform="rotate(0,323.5,114.5)"/><path d="M 318 153v 11h 5.5a 5.5 5.5, 0, 0, 0, 0 -11" transform="rotate(-90,323.5,158.5)"/><path d="M 318 164v 11h 11a 11 11, 0, 0, 0, -11 -11" transform="rotate(90,323.5,169.5)"/><circle cx="323.5" cy="191.5" r="5.5" transform="rotate(0,323.5,191.5)"/><path d="M 318 208v 11h 5.5a 5.5 5.5, 0, 0, 0, 0 -11" transform="rotate(-90,323.5,213.5)"/><path d="M 318 219v 11h 5.5a 5.5 5.5, 0, 0, 0, 0 -11" transform="rotate(90,323.5,224.5)"/><path d="M 318 241v 11h 11a 11 11, 0, 0, 0, -11 -11" transform="rotate(0,323.5,246.5)"/><path d="M 318 252v 11h 5.5a 5.5 5.5, 0, 0, 0, 0 -11" transform="rotate(90,323.5,257.5)"/><path d="M 318 274v 11h 5.5a 5.5 5.5, 0, 0, 0, 0 -11" transform="rotate(-90,323.5,279.5)"/><path d="M 318 285v 11h 11a 11 11, 0, 0, 0, -11 -11" transform="rotate(90,323.5,290.5)"/></clipPath><linearGradient id="dot-color" gradientUnits="userSpaceOnUse" x1="10" y1="10" x2="329" y2="329"><stop offset="0%" stop-color="#38bdf8"/><stop offset="100%" stop-color="#ec4899"/></linearGradient><clipPath id="clip-path-corners-square-color-0-0"><path clip-rule="evenodd" d="M 10 37.5v 22a 27.5 27.5, 0, 0, 0, 27.5 27.5h 22a 27.5 27.5, 0, 0, 0, 27.5 -27.5v -22a 27.5 27.5, 0, 0, 0, -27.5 -27.5h -22a 27.5 27.5, 0, 0, 0, -27.5 27.5M 37.5 21h 22a 16.5 16.5, 0, 0, 1, 16.5 16.5v 22a 16.5 16.5, 0, 0, 1, -16.5 16.5h -22a 16.5 16.5, 0, 0, 1, -16.5 -16.5v -22a 16.5 16.5, 0, 0, 1, 16.5 -16.5" transform="rotate(0,48.5,48.5)"/></clipPath><linearGradient id="corners-square-color-0-0" gradientUnits="userSpaceOnUse" x1="10" y1="10" x2="87" y2="87"><stop offset="0%" stop-color="#38bdf8"/><stop offset="100%" stop-color="#ec4899"/></linearGradient><clipPath id="clip-path-corners-dot-color-0-0"><circle cx="48.5" cy="48.5" r="16.5" transform="rotate(0,48.5,48.5)"/></clipPath><linearGradient id="corners-dot-color-0-0" gradientUnits="userSpaceOnUse" x1="32" y1="32" x2="65" y2="65"><stop offset="0%" stop-color="#38bdf8"/><stop offset="100%" stop-color="#ec4899"/></linearGradient><clipPath id="clip-path-corners-square-color-1-0"><path clip-rule="evenodd" d="M 252 37.5v 22a 27.5 27.5, 0, 0, 0, 27.5 27.5h 22a 27.5 27.5, 0, 0, 0, 27.5 -27.5v -22a 27.5 27.5, 0, 0, 0, -27.5 -27.5h -22a 27.5 27.5, 0, 0, 0, -27.5 27.5M 279.5 21h 22a 16.5 16.5, 0, 0, 1, 16.5 16.5v 22a 16.5 16.5, 0, 0, 1, -16.5 16.5h -22a 16.5 16.5, 0, 0, 1, -16.5 -16.5v -22a 16.5 16.5, 0, 0, 1, 16.5 -16.5" transform="rotate(90,290.5,48.5)"/></clipPath><linearGradient id="corners-square-color-1-0" gradientUnits="userSpaceOnUse" x1="329" y1="10" x2="252" y2="87"><stop offset="0%" stop-color="#38bdf8"/><stop offset="100%" stop-color="#ec4899"/></linearGradient><clipPath id="clip-path-corners-dot-color-1-0"><circle cx="290.5" cy="48.5" r="16.5" transform="rotate(90,290.5,48.5)"/></clipPath><linearGradient id="corners-dot-color-1-0" gradientUnits="userSpaceOnUse" x1="307" y1="32" x2="274" y2="65"><stop offset="0%" stop-color="#38bdf8"/><stop offset="100%" stop-color="#ec4899"/></linearGradient><clipPath id="clip-path-corners-square-color-0-1"><path clip-rule="evenodd" d="M 10 279.5v 22a 27.5 27.5, 0, 0, 0, 27.5 27.5h 22a 27.5 27.5, 0, 0, 0, 27.5 -27.5v -22a 27.5 27.5, 0, 0, 0, -27.5 -27.5h -22a 27.5 27.5, 0, 0, 0, -27.5 27.5M 37.5 263h 22a 16.5 16.5, 0, 0, 1, 16.5 16.5v 22a 16.5 16.5, 0, 0, 1, -16.5 16.5h -22a 16.5 16.5, 0, 0, 1, -16.5 -16.5v -22a 16.5 16.5, 0, 0, 1, 16.5 -16.5" transform="rotate(-90,48.5,290.5)"/></clipPath><linearGradient id="corners-square-color-0-1" gradientUnits="userSpaceOnUse" x1="10" y1="329" x2="87" y2="252"><stop offset="0%" stop-color="#38bdf8"/><stop offset="100%" stop-color="#ec4899"/></linearGradient><clipPath id="clip-path-corners-dot-color-0-1"><circle cx="48.5" cy="290.5" r="16.5" transform="rotate(-90,48.5,290.5)"/></clipPath><linearGradient id="corners-dot-color-0-1" gradientUnits="userSpaceOnUse" x1="32" y1="307" x2="65" y2="274"><stop offset="0%" stop-color="#38bdf8"/><stop offset="100%" stop-color="#ec4899"/></linearGradient></defs><rect x="0" y="0" height="340" width="340" clip-path="url('#clip-path-background-color')" fill="transparent"/><rect x="10" y="10" height="319" width="319" clip-path="url('#clip-path-dot-color')" fill="url('#dot-color')"/><rect x="10" y="10" height="77" width="77" clip-path="url('#clip-path-corners-square-color-0-0')" fill="url('#corners-square-color-0-0')"/><rect x="32" y="32" height="33" width="33" clip-path="url('#clip-path-corners-dot-color-0-0')" fill="url('#corners-dot-color-0-0')"/><rect x="252" y="10" height="77" width="77" clip-path="url('#clip-path-corners-square-color-1-0')" fill="url('#corners-square-color-1-0')"/><rect x="274" y="32" height="33" width="33" clip-path="url('#clip-path-corners-dot-color-1-0')" fill="url('#corners-dot-color-1-0')"/><rect x="10" y="252" height="77" width="77" clip-path="url('#clip-path-corners-square-color-0-1')" fill="url('#corners-square-color-0-1')"/><rect x="32" y="274" height="33" width="33" clip-path="url('#clip-path-corners-dot-color-0-1')" fill="url('#corners-dot-color-0-1')"/></svg>